HIERARCHY
ROOT Torso
{
    OFFSET 0 0 0
    CHANNELS 6 Xposition Yposition Zposition Zrotation Yrotation Xrotation
    JOINT LHip1 
    {   
        OFFSET 0 -0.06 0.01
        CHANNELS 3 Zrotation Yrotation Xrotation
        JOINT LHip2
        {
            OFFSET -0.055 -0.055 0
            CHANNELS 3 Zrotation Yrotation Xrotation
            JOINT LHip3
            {
                OFFSET 0 0 -0.01
                CHANNELS 3 Zrotation Yrotation Xrotation
                JOINT LThigh
                {
                    OFFSET 0.01 0 0
                    CHANNELS 3 Zrotation Yrotation Xrotation
                    JOINT LLeg
                    {
                        OFFSET -0.01 -0.120 -0.014
                        CHANNELS 3 Zrotation Yrotation Xrotation
                        JOINT LFoot
                        {
                            OFFSET 0 -0.1 0.01
                            CHANNELS 3 Zrotation Yrotation Xrotation
                            End Site
                            {
                                OFFSET 0 -0.035 -0.090
                            }
                        }
                    }
                }
            }
        }
    }
    JOINT RHip1 
    {   
        OFFSET 0 -0.06 0.01
        CHANNELS 3 Zrotation Yrotation Xrotation
        JOINT RHip2
        {
            OFFSET 0.055 -0.055 0
            CHANNELS 3 Zrotation Yrotation Xrotation
            JOINT RHip3
            {
                OFFSET 0 0 -0.01
                CHANNELS 3 Zrotation Yrotation Xrotation
                JOINT RThigh
                {
                    OFFSET 0.01 0 0
                    CHANNELS 3 Zrotation Yrotation Xrotation
                    JOINT RLeg
                    {
                        OFFSET -0.01 -0.120 -0.014
                        CHANNELS 3 Zrotation Yrotation Xrotation
                        JOINT RFoot
                        {
                            OFFSET 0 -0.1 0.01
                            CHANNELS 3 Zrotation Yrotation Xrotation
                            End Site
                            {
                                OFFSET 0 -0.035 -0.090
                            }
                        }
                    }
                }
            }
        }
    }
    JOINT Neck
    {
        OFFSET 0 0.04 0
        CHANNELS 3 Zrotation Yrotation Xrotation
        JOINT Head
        {
            OFFSET 0 0.1 0
            CHANNELS 3 Zrotation Yrotation Xrotation
            End Site 
            {
                OFFSET 0 0.07 0
            }
        }
    }
    JOINT LUpperarm
    {
        OFFSET -0.098 0.075 0
        CHANNELS 3 Zrotation Yrotation Xrotation
        JOINT LLowerarm
        {
            OFFSET 0 0.009 -0.09
            CHANNELS 3 Zrotation Yrotation Xrotation
            End Site
            {
                OFFSET 0 0 -0.105
            }
        }
    }
    JOINT RUpperarm
    {
        OFFSET 0.098 0.075 0
        CHANNELS 3 Zrotation Yrotation Xrotation
        JOINT RLowerarm
        {
            OFFSET 0 0.009 -0.09
            CHANNELS 3 Zrotation Yrotation Xrotation
            End Site
            {
                OFFSET 0 0 -0.105
            }
        }
    }
}
MOTION
Frames: 18
Frame Time: 0.0083333
0 0 0 0.0 0.0 0.0 0.0 0.0 0.0 0.0 1.6636639223097376 0.0 0.0 0.0 -9.23282417536707 0.0 0.0 0.0 0.0 0.0 -16.8798 0.0 21.585 -38.6672 0.0 0.0 0.0 0.0 -8.6613408975212 0.0 0.0 0.0 -3.179116239640927 0.0 0.0 0.0 0.0 0.0 -20.9452 0.0 -19.2434 -37.2361 0.0 0.0 0.0 0.0 0.0 0.0 0.0 0.0 -90.0 0.0 0.0 0.0 0.0 0.0 -90.0 0.0 0.0 0.0 
0 0 0 0.0 0.0 0.0 0.0 0.0 0.0 0.0 1.6597998165077428 0.0 0.0 0.0 -9.269506566527687 0.0 0.0 0.0 0.0 0.0 -16.8327 0.0 21.6291 -38.5504 0.0 0.0 0.0 0.0 -8.714927193799355 0.0 0.0 0.0 -3.1582213218987976 0.0 0.0 0.0 0.0 0.0 -21.0149 0.0 -19.1704 -37.1997 0.0 0.0 0.0 0.0 0.0 0.0 0.0 0.0 -90.0 0.0 0.0 0.0 0.0 0.0 -90.0 0.0 0.0 0.0 
0 0 0 0.0 0.0 0.0 0.0 0.0 0.0 0.0 1.6514674933605562 0.0 0.0 0.0 -9.314234698357945 0.0 0.0 0.0 0.0 0.0 -16.7808 0.0 21.6736 -38.4032 0.0 0.0 0.0 0.0 -8.768251076148559 0.0 0.0 0.0 -3.1467587210562025 0.0 0.0 0.0 0.0 0.0 -21.0871 0.0 -19.0952 -37.2147 0.0 0.0 0.0 0.0 0.0 0.0 0.0 0.0 -90.0 0.0 0.0 0.0 0.0 0.0 -90.0 0.0 0.0 0.0 
0 0 0 0.0 0.0 0.0 0.0 0.0 0.0 0.0 1.6323245560930957 0.0 0.0 0.0 -9.362094015460395 0.0 0.0 0.0 0.0 0.0 -16.74 0.0 21.7121 -38.233 0.0 0.0 0.0 0.0 -8.814620809521614 0.0 0.0 0.0 -3.144003315330029 0.0 0.0 0.0 0.0 0.0 -21.1463 0.0 -19.0314 -37.2683 0.0 0.0 0.0 0.0 0.0 0.0 0.0 0.0 -90.0 0.0 0.0 0.0 0.0 0.0 -90.0 0.0 0.0 0.0 
0 0 0 0.0 0.0 0.0 0.0 0.0 0.0 0.0 1.5921736993480238 0.0 0.0 0.0 -9.411248661796499 0.0 0.0 0.0 0.0 0.0 -16.7249 0.0 21.7405 -38.0394 0.0 0.0 0.0 0.0 -8.848956932552355 0.0 0.0 0.0 -3.150275452315825 0.0 0.0 0.0 0.0 0.0 -21.1783 0.0 -18.989 -37.3577 0.0 0.0 0.0 0.0 0.0 0.0 0.0 0.0 -90.0 0.0 0.0 0.0 0.0 0.0 -90.0 0.0 0.0 0.0 
0 0 0 0.0 0.0 0.0 0.0 0.0 0.0 0.0 1.525558073357658 0.0 0.0 0.0 -9.458233903347782 0.0 0.0 0.0 0.0 0.0 -16.7415 0.0 21.7576 -37.8247 0.0 0.0 0.0 0.0 -8.869171692769925 0.0 0.0 0.0 -3.1700724200262917 0.0 0.0 0.0 0.0 0.0 -21.175 0.0 -18.9818 -37.486 0.0 0.0 0.0 0.0 0.0 0.0 0.0 0.0 -90.0 0.0 0.0 0.0 0.0 0.0 -90.0 0.0 0.0 0.0 
0 0 0 0.0 0.0 0.0 0.0 0.0 0.0 0.0 1.432302414316041 0.0 0.0 0.0 -9.500967097363375 0.0 0.0 0.0 0.0 0.0 -16.7925 0.0 21.752 -37.6018 0.0 0.0 0.0 0.0 -8.874244344057814 0.0 0.0 0.0 -3.2076028824295757 0.0 0.0 0.0 0.0 0.0 -21.133 0.0 -19.018 -37.658 0.0 0.0 0.0 0.0 0.0 0.0 0.0 0.0 -90.0 0.0 0.0 0.0 0.0 0.0 -90.0 0.0 0.0 0.0 
0 0 0 0.0 0.0 0.0 0.0 0.0 0.0 0.0 1.315094188663167 0.0 0.0 0.0 -9.538468870557859 0.0 0.0 0.0 0.0 0.0 -16.879 0.0 21.7113 -37.3872 0.0 0.0 0.0 0.0 -8.865508517017886 0.0 0.0 0.0 -3.2603399385709415 0.0 0.0 0.0 0.0 0.0 -21.0523 0.0 -19.0875 -37.872 0.0 0.0 0.0 0.0 0.0 0.0 0.0 0.0 -90.0 0.0 0.0 0.0 0.0 0.0 -90.0 0.0 0.0 0.0 
0 0 0 0.0 0.0 0.0 0.0 0.0 0.0 0.0 1.183172486281606 0.0 0.0 0.0 -9.572275823694525 0.0 0.0 0.0 0.0 0.0 -16.9951 0.0 21.6379 -37.1859 0.0 0.0 0.0 0.0 -8.843304393751211 0.0 0.0 0.0 -3.3256833399876715 0.0 0.0 0.0 0.0 0.0 -20.9412 0.0 -19.1861 -38.1195 0.0 0.0 0.0 0.0 0.0 0.0 0.0 0.0 -90.0 0.0 0.0 0.0 0.0 0.0 -90.0 0.0 0.0 0.0 
0 0 0 0.0 0.0 0.0 0.0 0.0 0.0 0.0 1.0416784785865474 0.0 0.0 0.0 -9.606811136280996 0.0 0.0 0.0 0.0 0.0 -17.1254 0.0 21.5421 -36.9806 0.0 0.0 0.0 0.0 -8.815798618977368 0.0 0.0 0.0 -3.3999039823078605 0.0 0.0 0.0 0.0 0.0 -20.8173 0.0 -19.3044 -38.3939 0.0 0.0 0.0 0.0 0.0 0.0 0.0 0.0 -90.0 0.0 0.0 0.0 0.0 0.0 -90.0 0.0 0.0 0.0 
0 0 0 0.0 0.0 0.0 0.0 0.0 0.0 0.0 0.9013710200053424 0.0 0.0 0.0 -9.647718535107227 0.0 0.0 0.0 0.0 0.0 -17.2506 0.0 21.4389 -36.7539 0.0 0.0 0.0 0.0 -8.789805158275016 0.0 0.0 0.0 -3.474453160815331 0.0 0.0 0.0 0.0 0.0 -20.7017 0.0 -19.4142 -38.685 0.0 0.0 0.0 0.0 0.0 0.0 0.0 0.0 -90.0 0.0 0.0 0.0 0.0 0.0 -90.0 0.0 0.0 0.0 
0 0 0 0.0 0.0 0.0 0.0 0.0 0.0 0.0 0.7692459888168912 0.0 0.0 0.0 -9.696236669282474 0.0 0.0 0.0 0.0 0.0 -17.359 0.0 21.343 -36.5162 0.0 0.0 0.0 0.0 -8.773224847518051 0.0 0.0 0.0 -3.538525964025599 0.0 0.0 0.0 0.0 0.0 -20.6084 0.0 -19.4971 -38.9692 0.0 0.0 0.0 0.0 0.0 0.0 0.0 0.0 -90.0 0.0 0.0 0.0 0.0 0.0 -90.0 0.0 0.0 0.0 
0 0 0 0.0 0.0 0.0 0.0 0.0 0.0 0.0 0.6525863865787045 0.0 0.0 0.0 -9.749882986161099 0.0 0.0 0.0 0.0 0.0 -17.4458 0.0 21.2601 -36.2984 0.0 0.0 0.0 0.0 -8.767423290822592 0.0 0.0 0.0 -3.5854288188376775 0.0 0.0 0.0 0.0 0.0 -20.5427 0.0 -19.5481 -39.2209 0.0 0.0 0.0 0.0 0.0 0.0 0.0 0.0 -90.0 0.0 0.0 0.0 0.0 0.0 -90.0 0.0 0.0 0.0 
0 0 0 0.0 0.0 0.0 0.0 0.0 0.0 0.0 0.558422521167742 0.0 0.0 0.0 -9.799099088830392 0.0 0.0 0.0 0.0 0.0 -17.5072 0.0 21.1921 -36.1311 0.0 0.0 0.0 0.0 -8.771652281126805 0.0 0.0 0.0 -3.617186175398098 0.0 0.0 0.0 0.0 0.0 -20.5049 0.0 -19.5702 -39.4276 0.0 0.0 0.0 0.0 0.0 0.0 0.0 0.0 -90.0 0.0 0.0 0.0 0.0 0.0 -90.0 0.0 0.0 0.0 
0 0 0 0.0 0.0 0.0 0.0 0.0 0.0 0.0 0.4912861360117944 0.0 0.0 0.0 -9.834689656726711 0.0 0.0 0.0 0.0 0.0 -17.5465 0.0 21.1434 -36.0315 0.0 0.0 0.0 0.0 -8.781913676660025 0.0 0.0 0.0 -3.639244868517075 0.0 0.0 0.0 0.0 0.0 -20.4878 0.0 -19.5815 -39.5779 0.0 0.0 0.0 0.0 0.0 0.0 0.0 0.0 -90.0 0.0 0.0 0.0 0.0 0.0 -90.0 0.0 0.0 0.0 
0 0 0 0.0 0.0 0.0 0.0 0.0 0.0 0.0 0.450971979766706 0.0 0.0 0.0 -9.853089885347119 0.0 0.0 0.0 0.0 0.0 -17.5737 0.0 21.1144 -36.0019 0.0 0.0 0.0 0.0 -8.79033542137671 0.0 0.0 0.0 -3.6506661292749407 0.0 0.0 0.0 0.0 0.0 -20.4788 0.0 -19.5906 -39.6638 0.0 0.0 0.0 0.0 0.0 0.0 0.0 0.0 -90.0 0.0 0.0 0.0 0.0 0.0 -90.0 0.0 0.0 0.0 
0 0 0 0.0 0.0 0.0 0.0 0.0 0.0 0.0 0.4344572593968792 0.0 0.0 0.0 -9.853509447299176 0.0 0.0 0.0 0.0 0.0 -17.595 0.0 21.1035 -36.0291 0.0 0.0 0.0 0.0 -8.792084042565278 0.0 0.0 0.0 -3.6536617943716982 0.0 0.0 0.0 0.0 0.0 -20.4687 0.0 -19.6013 -39.6904 0.0 0.0 0.0 0.0 0.0 0.0 0.0 0.0 -90.0 0.0 0.0 0.0 0.0 0.0 -90.0 0.0 0.0 0.0 
0 0 0 0.0 0.0 0.0 0.0 0.0 0.0 0.0 0.4368417252662198 0.0 0.0 0.0 -9.836912969115547 0.0 0.0 0.0 0.0 0.0 -17.6124 0.0 21.1127 -36.0863 0.0 0.0 0.0 0.0 -8.784183706186965 0.0 0.0 0.0 -3.652634946144507 0.0 0.0 0.0 0.0 0.0 -20.4534 0.0 -19.6256 -39.6685 0.0 0.0 0.0 0.0 0.0 0.0 0.0 0.0 -90.0 0.0 0.0 0.0 0.0 0.0 -90.0 0.0 0.0 0.0 
